<?xml version="1.0" standalone="no"?> <!DOCTYPE svg PUBLIC "-//W3C//DTD SVG 1.0//EN" "http://www.w3.org/TR/2001/REC-SVG-20010904/DTD/svg10.dtd" > <svg xmlns="http://www.w3.org/2000/svg" width="100%" height="100%">
<defs >
<font horiz-adv-x="2083" ><font-face
    font-family="Whovet"
    units-per-em="2048"
    panose-1="0 0 0 0 0 0 0 0 0 0"
    ascent="1950"
    descent="-494"
    alphabetic="0" />
<missing-glyph horiz-adv-x="2048" d="M100 -494H1948V-222H100V-494ZM100 -60H1948V212H100V-60ZM100 375H1948V647H100V375ZM100 809H1948V1081H100V809ZM100 1244H1948V1516H100V1244ZM100 1678H1948V1950H100V1678Z" />
<glyph unicode=" " glyph-name="space" horiz-adv-x="420" />
<glyph unicode="!" glyph-name="exclamationmark" horiz-adv-x="546" d="M195 479H351L363 1443H183L195 479ZM273 -10Q322 -10 354 23T387 104Q387 153 355 185T273 218Q225 218 192 186T159 104Q159 56 192 23T273 -10Z" />
<glyph unicode="&quot;" glyph-name="quotedbl" horiz-adv-x="826" d="M197 934H323L343 1443H177L197 934ZM503 934H629L649 1443H483L503 934Z" />
<glyph unicode="#" glyph-name="numbersign" horiz-adv-x="1238" d="M308 0L397 482H393L490 995H494L578 1443H432L162 0H308ZM790 0L1060 1443H914L829 995H833L736 482H732L644 0H790ZM1117 391L1146 537H809V533H326V537H29L0 391H1117ZM1209 920L1238 1066H120L91
920H402L403 924H883V920H1209Z" />
<glyph unicode="$" glyph-name="dollarsign" horiz-adv-x="1238" d="M622 21Q752 21 863 66T1042 199T1110 416V417Q1110 575 1006 662T709 796L560 832Q430 864 378 918T326 1046V1047Q326 1102 359 1152T459 1234T622 1266Q704 1266 768 1239T873 1160T921 1036L922
1027H1096L1095 1042Q1088 1156 1024 1241T856 1374T622 1422Q488 1422 382 1375T214 1241T152 1038V1037Q152 889 250 801T535 668L684 632Q832 596 884 542T936 406V405Q936 342 905 290T806 208T624 177Q514 177 445 209T340 294T292 412L290 424H116L117 410Q126
289 196 202T377 68T622 21ZM558 -145H678V1588H558V-145Z" />
<glyph unicode="%" glyph-name="percent" horiz-adv-x="1655" d="M383 731Q520 731 597 828T675 1093V1094Q675 1261 598 1358T383 1455Q247 1455 169 1358T91 1094V1093Q91 926 169 829T383 731ZM383 851Q310 851 270 915T230 1093V1094Q230 1208 270 1271T383
1335Q456 1335 496 1272T536 1094V1093Q536 979 496 915T383 851ZM448 0L1372 1443H1210L284 0H448ZM1272 -12Q1409 -12 1486 85T1564 350V351Q1564 518 1487 615T1272 712Q1136 712 1058 615T980 351V350Q980 183 1058 86T1272 -12ZM1272 108Q1199 108 1159 172T1119
350V351Q1119 465 1159 528T1272 592Q1345 592 1385 529T1425 351V350Q1425 236 1385 172T1272 108Z" />
<glyph unicode="&amp;" glyph-name="ampersand" horiz-adv-x="1370" d="M1161 0H1381V6L593 849Q531 917 491 965T431 1054T411 1137V1138Q411 1193 436 1235T505 1302T606 1326Q664 1326 708 1303T777 1237T802 1140V1139Q802 1059 739 995T509 848L607 747Q808
850 889 940T970 1146V1147Q970 1241 923 1313T793 1426T605 1467Q501 1467 419 1425T289 1311T241 1146V1145Q242 1091 262 1039T325 929T436 795L1161 0ZM566 -24Q731 -24 861 34T1080 201Q1163 304 1208 448T1253 773V817H1087V774Q1087 632 1058 517T972 318Q930
256 873 213T743 148T582 126Q486 126 414 160T301 255T260 396V397Q260 480 308 547T471 679L582 742L483 847L366 785Q224 709 153 611T82 385V384Q82 264 143 172T314 28T566 -24Z" />
<glyph unicode="&apos;" glyph-name="quotesingle" horiz-adv-x="520" d="M197 934H323L343 1443H177L197 934Z" />
<glyph unicode="(" glyph-name="parenleft" horiz-adv-x="660" d="M474 -350H620Q566 -287 520 -187T440 35T386 290T367 547Q367 672 386 803T439 1057T520 1280T620 1443H474Q377 1319 314 1180T221 883T190 547Q190 369 220 211T313 -86T474 -350Z" />
<glyph unicode=")" glyph-name="parenright" horiz-adv-x="660" d="M186 -350Q284 -227 346 -87T439 211T470 547Q470 725 440 882T347 1179T186 1443H40Q94 1380 140 1280T220 1058T274 804T293 547Q293 422 274 291T221 36T140 -187T40 -350H186Z" />
<glyph unicode="*" glyph-name="asterisk" horiz-adv-x="820" d="M359 1112H461L476 1443H344L359 1112ZM383 1068L434 1156L156 1334L90 1220L383 1068ZM434 1067L383 1155L90 1003L156 889L434 1067ZM461 1112H359L344 781H476L461 1112ZM436 1156L385 1068L663
890L729 1004L436 1156ZM384 1156L435 1068L728 1220L662 1334L384 1156Z" />
<glyph unicode="+" glyph-name="plus" horiz-adv-x="1238" d="M112 505H1127V667H112V505ZM539 78H701V1093H539V78Z" />
<glyph unicode="," glyph-name="comma" horiz-adv-x="440" d="M43 -283H167L313 206H131L43 -283Z" />
<glyph unicode="-" glyph-name="hyphen" horiz-adv-x="878" d="M119 504H759V666H119V504Z" />
<glyph unicode="." glyph-name="period" horiz-adv-x="440" d="M220 -14Q268 -14 301 19T334 100Q334 148 301 181T220 214Q172 214 139 181T106 100Q106 52 139 19T220 -14Z" />
<glyph unicode="/" glyph-name="slash" horiz-adv-x="572" d="M573 1443H407L0 -350H166L573 1443Z" />
<glyph unicode="0" glyph-name="zero" horiz-adv-x="1242" d="M620 -24Q786 -24 905 67T1087 325T1151 721V723Q1151 952 1088 1119T905 1376T620 1467Q454 1467 336 1377T154 1119T91 723V721Q91 492 154 325T335 67T620 -24ZM620 133Q510 133 432 204T313 408T272
721V723Q272 904 313 1035T432 1238T620 1309Q730 1309 808 1238T928 1036T970 723V721Q970 540 929 408T809 205T620 133Z" />
<glyph unicode="1" glyph-name="one" horiz-adv-x="908" d="M485 0H659V1443H483L99 1167V986L481 1252H485V0Z" />
<glyph unicode="2" glyph-name="two" horiz-adv-x="1159" d="M117 0H1069V160H311L364 110V221L311 110L707 516Q840 652 913 744T1015 911T1045 1064V1066Q1045 1179 987 1270T826 1414T593 1467Q459 1467 349 1411T173 1256T108 1032V1026H282V1031Q282 1109
323 1172T435 1272T596 1310Q675 1310 735 1278T830 1188T865 1057V1055Q865 995 846 942T775 823T625 654L117 124V0Z" />
<glyph unicode="3" glyph-name="three" horiz-adv-x="1212" d="M603 -24Q748 -24 861 30T1039 180T1104 395V397Q1104 551 1007 644T751 751V755Q841 774 910 820T1018 935T1057 1093V1095Q1057 1205 1001 1288T842 1419T601 1467Q466 1467 363 1418T197 1281T122
1075L121 1065H294L295 1075Q303 1148 343 1201T449 1282T601 1311Q689 1311 750 1283T844 1202T876 1073V1071Q876 999 839 943T736 854T584 821H411V669H592Q744 669 832 598T921 393V391Q921 315 881 257T770 165T603 132Q459 132 368 199T266 372L265 382H92L93
370Q103 256 167 167T343 27T603 -24Z" />
<glyph unicode="4" glyph-name="four" horiz-adv-x="1238" d="M803 0H977V300H1181V458H977V1443H711Q648 1345 585 1247T458 1051T332 855T205 659T78 463V300H803V0ZM256 458V462Q310 545 364 627T472 793T581 958T689 1123T797 1289H803V458H256Z" />
<glyph unicode="5" glyph-name="five" horiz-adv-x="1198" d="M613 -24Q763 -24 879 38T1061 212T1127 467V469Q1127 608 1066 715T897 885T650 947Q545 947 459 909T322 798H318L367 1283H1045V1443H219L145 620H304Q318 645 335 666T372 705Q420 749 482 770T618
792Q714 792 788 750T904 635T947 466V464Q947 367 905 293T788 176T615 134Q529 134 460 167T348 257T296 386L295 394H118L119 383Q130 266 195 174T367 29T613 -24Z" />
<glyph unicode="6" glyph-name="six" horiz-adv-x="1264" d="M639 -24Q787 -24 902 39T1083 213T1150 466V468Q1150 605 1088 713T917 883T671 945Q573 945 493 914T356 830T269 713H248V468H308V469Q308 561 351 633T470 746T640 787Q735 787 809 746T925 631T967
464V462Q967 371 923 297T804 180T637 136Q545 136 470 180T352 300T308 468L265 705Q265 715 265 724T266 744Q270 896 309 1024T432 1230T649 1308Q723 1308 781 1285T881 1218T943 1115L947 1104H1130L1127 1117Q1103 1222 1037 1301T873 1423T651 1467Q475
1467 350 1376T158 1113T91 697V695Q91 494 138 357T265 135T442 14T639 -24Z" />
<glyph unicode="7" glyph-name="seven" horiz-adv-x="1120" d="M200 0H389L1031 1276V1443H76V1283H853V1279L200 0Z" />
<glyph unicode="8" glyph-name="eight" horiz-adv-x="1228" d="M614 -24Q767 -24 885 29T1071 175T1138 390V392Q1138 481 1099 557T991 686T828 761V765Q947 802 1016 887T1086 1086V1088Q1086 1197 1025 1282T858 1417T614 1467Q478 1467 371 1418T203 1283T142
1088V1086Q142 972 212 887T400 765V761Q308 740 238 687T129 557T90 392V390Q90 269 157 176T343 29T614 -24ZM614 133Q515 133 438 167T317 262T273 401V403Q273 482 316 543T437 639T614 674Q714 674 791 639T911 543T955 403V401Q955 323 911 263T791 168T614
133ZM614 832Q527 832 461 862T358 947T321 1071V1073Q321 1143 358 1197T461 1281T614 1312Q701 1312 767 1282T870 1197T907 1073V1071Q907 1001 870 947T767 863T614 832Z" />
<glyph unicode="9" glyph-name="nine" horiz-adv-x="1264" d="M625 1467Q477 1467 362 1404T181 1230T114 977V975Q114 838 176 730T347 560T593 498Q691 498 771 529T909 613T995 730H1016V975H956V974Q956 882 913 810T794 697T624 656Q529 656 455 697T339
812T297 979V981Q297 1072 341 1146T460 1263T627 1307Q720 1307 794 1263T912 1143T956 975L999 738Q999 728 999 719T998 699Q994 548 955 420T833 213T615 135Q541 135 483 158T384 225T321 328L317 339H134L137 326Q161 221 227 143T392 20T613 -24Q790 -24
915 67T1106 330T1173 746V748Q1173 949 1126 1086T999 1308T822 1429T625 1467Z" />
<glyph unicode=":" glyph-name="colon" horiz-adv-x="440" d="M220 -14Q268 -14 301 19T334 100Q334 148 301 181T220 214Q172 214 139 181T106 100Q106 52 139 19T220 -14ZM220 760Q268 760 301 793T334 874Q334 922 301 955T220 988Q172 988 139 955T106 874Q106
826 139 793T220 760Z" />
<glyph unicode=";" glyph-name="semicolon" horiz-adv-x="440" d="M43 -283H167L313 206H131L43 -283ZM220 760Q268 760 301 793T334 874Q334 922 301 955T220 988Q172 988 139 955T106 874Q106 826 139 793T220 760Z" />
<glyph unicode="&lt;" glyph-name="less" horiz-adv-x="1238" d="M124 492L1114 113V271L134 638V537L1114 904V1058L124 679V492Z" />
<glyph unicode="=" glyph-name="equal" horiz-adv-x="1238" d="M124 249H1114V411H124V249ZM124 760H1114V922H124V760Z" />
<glyph unicode="&gt;" glyph-name="greater" horiz-adv-x="1238" d="M1114 679L124 1058V900L1104 533V634L124 267V113L1114 492V679Z" />
<glyph unicode="?" glyph-name="questionmark" horiz-adv-x="1002" d="M369 446H544V511Q544 564 558 603T608 676T707 747Q803 805 859 889T916 1091V1092Q916 1196 863 1277T714 1406T492 1454Q352 1454 258 1403T115 1267T57 1079L56 1066H227L228 1076Q235
1143 267 1192T354 1270T485 1298Q559 1298 614 1271T699 1195T730 1083V1082Q730 1029 714 988T663 913T569 842Q501 801 457 756T391 658T369 538V446ZM457 -10Q506 -10 538 23T571 104Q571 153 539 185T457 218Q409 218 376 186T343 104Q343 56 376 23T457 -10Z"
/>
<glyph unicode="@" glyph-name="at" horiz-adv-x="1791" d="M941 -235Q1140 -235 1279 -186V-50Q1230 -72 1137 -85T943 -98Q745 -98 589 -18T341 217T250 597V598Q250 752 299 880T437 1102T647 1247T912 1298Q1110 1298 1259 1222T1492 1004T1576 669V668Q1576
485 1527 393T1399 301Q1340 301 1303 352T1266 506V993H1115V871H1107Q1079 935 1012 973T865 1012Q763 1012 685 960T562 814T517 598V597Q517 470 560 375T682 227T865 174Q961 174 1034 218T1143 354H1152L1155 345Q1180 270 1241 218T1397 165Q1490 165 1565
222T1683 391T1727 669V670Q1727 905 1623 1076T1338 1341T925 1434Q743 1434 592 1374T330 1202T159 938T99 599V598Q99 397 161 242T337 -20T604 -180T941 -235ZM888 315Q823 315 776 349T703 445T677 596V597Q677 684 702 746T775 841T890 874Q991 874 1052
799T1113 596V595Q1113 467 1052 391T888 315Z" />
<glyph unicode="A" glyph-name="A" horiz-adv-x="1301" d="M25 0H214L649 1227H695V1443H562L25 0ZM271 413H1031L971 566H331L271 413ZM1087 0H1276L740 1443H653V1227L1087 0Z" />
<glyph unicode="B" glyph-name="B" horiz-adv-x="1238" d="M230 0H685Q839 0 948 48T1115 187T1174 405V407Q1174 503 1134 578T1019 702T840 762V766Q915 777 974 823T1067 938T1101 1081V1083Q1101 1191 1049 1272T904 1398T687 1443H230V1284H646Q777 1284
848 1228T919 1064V1062Q919 945 835 883T590 821H230V666H641Q756 666 833 638T950 554T989 414V412Q989 288 905 224T658 159H230V0ZM140 0H320V1443H140V0Z" />
<glyph unicode="C" glyph-name="C" horiz-adv-x="1405" d="M743 -24Q894 -24 1017 32T1222 190T1331 431L1333 441H1151L1148 432Q1117 337 1060 273T924 175T743 142Q600 142 493 214T328 416T269 722V723Q269 899 327 1028T492 1229T743 1301Q845 1301 925 1268T1060
1174T1144 1024L1151 1002H1333L1331 1012Q1304 1149 1222 1251T1016 1410T743 1467Q542 1467 394 1376T165 1117T84 723V722Q84 495 165 328T394 68T743 -24Z" />
<glyph unicode="D" glyph-name="D" horiz-adv-x="1390" d="M140 0H625Q840 0 992 85T1225 333T1306 722V724Q1306 951 1225 1111T991 1357T625 1443H140V0ZM320 162V1281H613Q777 1281 890 1217T1063 1027T1122 722V720Q1122 541 1063 417T891 227T613 162H320Z" />
<glyph unicode="E" glyph-name="E" horiz-adv-x="1131" d="M140 0H1034V162H320V658H997V818H320V1281H1034V1443H140V0Z" />
<glyph unicode="F" glyph-name="F" horiz-adv-x="1081" d="M140 0H320V625H959V785H320V1281H1016V1443H140V0Z" />
<glyph unicode="G" glyph-name="G" horiz-adv-x="1447" d="M745 -24Q938 -24 1074 50T1284 263T1357 597V734H770V576H1177V550Q1177 429 1123 337T971 194T745 142Q598 142 491 213T326 416T268 729V730Q268 908 325 1036T490 1232T745 1301Q897 1301 1001 1226T1155
1013L1159 1002H1348L1343 1021Q1310 1149 1232 1249T1033 1408T745 1467Q544 1467 396 1377T166 1121T84 730V729Q84 499 165 330T395 69T745 -24Z" />
<glyph unicode="H" glyph-name="H" horiz-adv-x="1432" d="M140 0H320V657H1112V0H1292V1443H1112V819H320V1443H140V0Z" />
<glyph unicode="I" glyph-name="I" horiz-adv-x="460" d="M140 0H320V1443H140V0Z" />
<glyph unicode="J" glyph-name="J" horiz-adv-x="1014" d="M449 -24Q649 -24 761 91T874 411V1443H694V413Q694 281 631 212T448 142Q377 142 329 169T255 242T223 342L222 352H42L43 338Q51 235 99 153T236 24T449 -24Z" />
<glyph unicode="K" glyph-name="K" horiz-adv-x="1230" d="M305 488L581 792H590L1164 1443H938L326 735H305V488ZM140 0H320V1443H140V0ZM987 0H1217L591 816L464 688L987 0Z" />
<glyph unicode="L" glyph-name="L" horiz-adv-x="1074" d="M140 0H1016V162H320V1443H140V0Z" />
<glyph unicode="M" glyph-name="M" horiz-adv-x="1702" d="M140 0H308V1115H390L195 1403L775 0H927L1507 1403L1312 1115H1394V0H1562V1443H1354L854 227H848L348 1443H140V0Z" />
<glyph unicode="N" glyph-name="N" horiz-adv-x="1432" d="M140 0H318V1139H398L170 1359L1117 0H1292V1443H1114V304H1034L1262 84L315 1443H140V0Z" />
<glyph unicode="O" glyph-name="O" horiz-adv-x="1498" d="M750 -24Q955 -24 1103 67T1333 325T1414 721V723Q1414 952 1333 1118T1103 1376T750 1467Q546 1467 397 1376T166 1119T84 723V721Q84 492 165 325T395 67T750 -24ZM750 142Q602 142 494 213T327 414T268
721V723Q268 901 327 1030T494 1230T750 1301Q897 1301 1005 1231T1171 1030T1230 723V721Q1230 545 1172 415T1007 214T750 142Z" />
<glyph unicode="P" glyph-name="P" horiz-adv-x="1183" d="M230 515H654Q790 515 894 574T1057 738T1117 980V982Q1117 1119 1058 1223T894 1385T654 1443H230V1283H608Q763 1283 848 1203T933 980V978Q933 836 848 756T608 675H230V515ZM140 0H320V1443H140V0Z" />
<glyph unicode="Q" glyph-name="Q" horiz-adv-x="1498" d="M750 -24Q955 -24 1103 67T1333 325T1414 721V723Q1414 952 1333 1118T1103 1376T750 1467Q546 1467 397 1376T166 1119T84 723V721Q84 492 165 325T395 67T750 -24ZM750 142Q602 142 494 213T328 414T269
721V723Q269 901 328 1030T495 1230T750 1301Q897 1301 1004 1231T1170 1030T1229 723V721Q1229 545 1171 415T1006 214T750 142ZM1141 -163H1343L924 413H722L1141 -163Z" />
<glyph unicode="R" glyph-name="R" horiz-adv-x="1227" d="M140 0H320V571H654Q657 571 659 571T665 571L974 0H1185L851 599Q986 642 1063 751T1141 1011V1013Q1141 1143 1084 1239T924 1389T681 1443H140V0ZM320 730V1283H657Q796 1283 875 1211T955 1009V1007Q955
874 880 802T665 730H320Z" />
<glyph unicode="S" glyph-name="S" horiz-adv-x="1215" d="M612 -24Q777 -24 896 27T1080 172T1145 394V395Q1145 560 1046 655T725 800L565 835Q424 866 357 923T290 1068V1069Q290 1139 329 1191T441 1272T609 1301Q701 1301 770 1273T883 1193T937 1067L939
1053H1119L1118 1068Q1110 1186 1044 1276T866 1416T614 1467Q466 1467 352 1416T172 1274T106 1064V1063Q106 905 207 808T520 663L680 628Q829 595 895 538T961 386V385Q961 311 920 256T802 172T622 142Q518 142 439 170T311 251T252 376L250 390H70L71 376Q80
253 149 163T337 25T612 -24Z" />
<glyph unicode="T" glyph-name="T" horiz-adv-x="1190" d="M505 0H685V1281H1140V1443H50V1281H505V0Z" />
<glyph unicode="U" glyph-name="U" horiz-adv-x="1426" d="M714 -24Q893 -24 1021 43T1217 229T1286 506V1443H1106V518Q1106 352 1004 247T714 142Q527 142 424 247T320 518V1443H140V506Q140 349 209 230T406 43T714 -24Z" />
<glyph unicode="V" glyph-name="V" horiz-adv-x="1292" d="M557 0H735L1267 1443H1078L648 216H644L214 1443H25L557 0Z" />
<glyph unicode="W" glyph-name="W" horiz-adv-x="1892" d="M438 0H608L944 1156H948L1284 0H1454L1847 1443H1659L1368 258H1364L1037 1443H855L528 258H524L233 1443H45L438 0Z" />
<glyph unicode="X" glyph-name="X" horiz-adv-x="1300" d="M45 0H249L681 639L562 576H644L1028 0H1244L713 779L756 640V720L1255 1443H1050L617 798L736 862H654L268 1443H51L537 729V649L580 788L45 0Z" />
<glyph unicode="Y" glyph-name="Y" horiz-adv-x="1254" d="M537 0H717V621L1229 1443H1024L630 795H624L230 1443H25L537 621V0Z" />
<glyph unicode="Z" glyph-name="Z" horiz-adv-x="1263" d="M98 0H1165V162H327V166L1148 1315V1443H126V1281H923V1277L98 128V0Z" />
<glyph unicode="[" glyph-name="bracketleft" horiz-adv-x="660" d="M206 -350H640V-215H374V1307H640V1443H206V-350Z" />
<glyph unicode="\" glyph-name="backslash" horiz-adv-x="572" d="M166 1443H0L407 -350H573L166 1443Z" />
<glyph unicode="]" glyph-name="bracketright" horiz-adv-x="660" d="M454 -350V1443H20V1307H286V-215H20V-350H454Z" />
<glyph unicode="^" glyph-name="asciicircum" horiz-adv-x="1238" d="M168 1081V1056H356L619 1293L882 1056H1070V1081L667 1443H571L168 1081Z" />
<glyph unicode="_" glyph-name="underscore" horiz-adv-x="1079" d="M0 -262H1079V-100H0V-262Z" />
<glyph unicode="`" glyph-name="grave" horiz-adv-x="1024" d="M555 1159H689L518 1459H336L555 1159Z" />
<glyph unicode="a" glyph-name="a" horiz-adv-x="1134" d="M538 134Q446 134 379 180T276 314T240 520V521Q240 640 276 726T379 859T538 906Q626 906 693 858T800 724T839 521V520Q839 404 801 317T694 182T538 134ZM504 -20Q616 -20 700 32T834 176H838V0H1012V1040H838V866H834Q785
956 698 1008T501 1060Q371 1060 272 994T118 806T62 521V520Q62 356 117 235T271 47T504 -20Z" />
<glyph unicode="b" glyph-name="b" horiz-adv-x="1134" d="M630 -20Q763 -20 862 46T1017 234T1072 520V521Q1072 685 1017 806T863 993T633 1060Q523 1060 436 1008T300 866H296V1443H122V0H296V176H300Q349 85 433 33T630 -20ZM596 134Q508 134 440 182T334
317T295 520V521Q295 637 334 723T440 858T596 906Q688 906 755 859T858 726T894 521V520Q894 401 858 314T755 181T596 134Z" />
<glyph unicode="c" glyph-name="c" horiz-adv-x="1026" d="M544 -20Q662 -20 754 26T905 152T978 331L979 338H808L806 330Q784 243 718 189T544 134Q454 134 386 180T279 312T240 519V520Q240 638 278 724T384 858T542 906Q657 906 721 847T805 710L807 702H977L976
710Q965 799 912 879T765 1009T542 1060Q398 1060 290 994T122 807T62 522V521Q62 356 121 235T288 47T544 -20Z" />
<glyph unicode="d" glyph-name="d" horiz-adv-x="1134" d="M504 -20Q616 -20 700 32T834 176H838V0H1012V1443H838V866H834Q785 956 698 1008T501 1060Q371 1060 272 994T118 806T62 521V520Q62 356 117 235T271 47T504 -20ZM538 134Q446 134 379 180T276 314T240
520V521Q240 640 276 726T379 859T538 906Q626 906 693 858T800 724T839 521V520Q839 404 801 317T694 182T538 134Z" />
<glyph unicode="e" glyph-name="e" horiz-adv-x="1049" d="M541 -20Q626 -20 699 3T829 69T922 168T972 288L974 298H803L800 289Q785 244 750 209T663 154T545 134Q451 134 382 175T276 295T238 483V550Q238 666 276 745T380 865T529 906Q612 906 676 868T776
750T813 550V483L901 609H149V473H987V537Q987 693 932 811T775 994T530 1060Q388 1060 283 992T120 801T62 517V516Q62 353 119 233T284 46T541 -20Z" />
<glyph unicode="f" glyph-name="f" horiz-adv-x="622" d="M169 0H343V896H555V1040H341V1167Q341 1244 377 1281T485 1319Q505 1319 524 1318T560 1315V1456Q541 1459 512 1461T454 1463Q310 1463 240 1391T169 1168V1040H24V896H169V0Z" />
<glyph unicode="g" glyph-name="g" horiz-adv-x="1124" d="M553 -370Q694 -370 797 -321T956 -182T1012 29V1040H838V864H834Q802 922 754 966T643 1035T507 1060Q375 1060 275 994T119 809T62 527V526Q62 364 117 244T272 57T503 -10Q578 -10 641 13T754 79T834
179H838V46Q838 -75 763 -145T551 -216Q445 -216 374 -184T277 -95L273 -86H98L100 -95Q117 -172 175 -234T329 -333T553 -370ZM541 144Q449 144 381 190T277 322T240 526V527Q240 643 276 728T381 859T541 906Q629 906 696 859T800 727T838 527V526Q838 411 801
325T697 192T541 144Z" />
<glyph unicode="h" glyph-name="h" horiz-adv-x="1104" d="M122 0H296V607Q296 696 329 763T423 868T564 906Q686 906 754 827T822 607V0H996V637Q996 763 949 858T819 1006T624 1060Q508 1060 425 1011T300 874H296V1443H122V0Z" />
<glyph unicode="i" glyph-name="i" horiz-adv-x="422" d="M124 0H298V1040H124V0ZM211 1216Q257 1216 288 1248T320 1325Q320 1371 289 1402T211 1434Q166 1434 134 1403T102 1325Q102 1280 134 1248T211 1216Z" />
<glyph unicode="j" glyph-name="j" horiz-adv-x="420" d="M-26 -351Q141 -351 218 -277T296 -44V1040H122V-46Q122 -133 88 -165T-32 -197Q-39 -197 -45 -197T-59 -197V-350Q-51 -351 -43 -351T-26 -351ZM209 1216Q255 1216 286 1248T318 1325Q318 1371 287 1402T209
1434Q164 1434 132 1403T100 1325Q100 1280 132 1248T209 1216Z" />
<glyph unicode="k" glyph-name="k" horiz-adv-x="994" d="M127 0H301V1443H127V0ZM784 0H986L504 613L388 497L784 0ZM262 355L465 549H479L972 1040H761L305 581H262V355Z" />
<glyph unicode="l" glyph-name="l" horiz-adv-x="418" d="M122 0H296V1443H122V0Z" />
<glyph unicode="m" glyph-name="m" horiz-adv-x="1645" d="M113 0H287V652Q287 725 318 782T402 872T525 906Q622 906 680 849T738 697V0H912V661Q912 732 942 787T1025 874T1147 906Q1250 906 1306 846T1363 678V0H1537V718Q1537 822 1495 898T1377 1017T1198
1060Q1125 1060 1062 1036T950 968T872 860H868Q846 924 804 968T705 1036T576 1060Q476 1060 401 1013T291 888H287V1040H113V0Z" />
<glyph unicode="n" glyph-name="n" horiz-adv-x="1079" d="M113 0H287V612Q287 701 320 767T415 869T558 906Q678 906 737 839T797 644V0H971V675Q971 853 877 956T611 1060Q493 1060 413 1013T291 892H287V1040H113V0Z" />
<glyph unicode="o" glyph-name="o" horiz-adv-x="1087" d="M544 -20Q688 -20 796 46T964 233T1025 520V522Q1025 688 965 808T796 994T543 1060Q400 1060 292 995T123 809T62 522V520Q62 355 122 234T291 46T544 -20ZM545 134Q453 134 385 179T278 311T240 520V522Q240
644 278 729T384 860T543 906Q635 906 703 861T809 730T847 522V520Q847 398 810 312T705 180T545 134Z" />
<glyph unicode="p" glyph-name="p" horiz-adv-x="1125" d="M113 -350H287V174H291Q324 114 373 71T487 4T624 -20Q755 -20 853 46T1007 234T1063 519V520Q1063 684 1008 805T854 993T621 1060Q547 1060 484 1036T373 969T291 864H287V1040H113V-350ZM587 134Q499
134 432 182T325 316T286 519V520Q286 637 324 723T431 858T587 906Q679 906 746 860T849 727T885 520V519Q885 401 849 315T746 181T587 134Z" />
<glyph unicode="q" glyph-name="q" horiz-adv-x="1124" d="M838 -350H1012V1040H838V864H834Q802 922 754 965T643 1033T507 1058Q375 1058 275 992T119 805T62 522V521Q62 358 117 237T272 49T503 -18Q578 -18 641 5T754 70T834 169H838V-350ZM541 136Q449 136
381 182T277 315T240 521V522Q240 639 276 724T381 857T541 904Q629 904 696 857T800 724T838 522V521Q838 405 801 318T697 184T541 136Z" />
<glyph unicode="r" glyph-name="r" horiz-adv-x="631" d="M113 0H287V650Q287 724 314 778T392 863T510 894Q542 894 567 891T603 884V1053Q593 1055 575 1057T533 1060Q442 1060 375 1009T281 872H277V1040H113V0Z" />
<glyph unicode="s" glyph-name="s" horiz-adv-x="953" d="M482 -20Q598 -20 689 19T833 129T886 290V291Q886 402 822 468T600 573L435 613Q349 634 311 671T273 761V762Q273 808 297 842T368 896T477 915Q574 915 630 869T697 747L698 740H864L863 753Q857 840
809 909T676 1019T477 1060Q365 1060 279 1021T144 913T95 754V753Q95 641 167 571T386 465L551 425Q640 403 674 369T708 279V278Q708 231 681 197T604 144T483 125Q377 125 318 168T243 290L241 300H67L68 291Q79 198 130 128T271 19T482 -20Z" />
<glyph unicode="t" glyph-name="t" horiz-adv-x="617" d="M451 -20Q477 -20 502 -18T544 -13V128Q533 127 519 126T488 124Q418 124 382 153T346 266V896H544V1040H346V1321H166V1040H14V896H166V265Q166 116 237 48T451 -20Z" />
<glyph unicode="u" glyph-name="u" horiz-adv-x="1079" d="M468 -20Q587 -20 666 27T788 148H792V0H966V1040H792V428Q792 340 759 274T664 171T521 134Q401 134 342 201T282 396V1040H108V365Q108 247 150 161T273 27T468 -20Z" />
<glyph unicode="v" glyph-name="v" horiz-adv-x="989" d="M406 0H584L966 1040H785L497 185H493L206 1040H23L406 0Z" />
<glyph unicode="w" glyph-name="w" horiz-adv-x="1465" d="M319 0H496L730 805H734L969 0H1146L1436 1040H1264L1056 194H1052L816 1040H648L413 194H409L201 1040H28L319 0Z" />
<glyph unicode="x" glyph-name="x" horiz-adv-x="959" d="M32 0H225L476 396H480L729 0H922L576 527L927 1040H733L486 650H482L232 1040H38L386 520L32 0Z" />
<glyph unicode="y" glyph-name="y" horiz-adv-x="996" d="M213 -350Q307 -350 372 -320T483 -227T566 -65L972 1040H789L488 134L525 174H473L510 134L210 1040H24L410 -1L389 -60Q358 -148 309 -177T176 -206Q160 -206 146 -204T120 -200V-342Q137 -345 162 -347T213
-350Z" />
<glyph unicode="z" glyph-name="z" horiz-adv-x="958" d="M91 0H867V144H293V147L864 913V1040H92V896H666V893L91 124V0Z" />
<glyph unicode="{" glyph-name="braceleft" horiz-adv-x="660" d="M585 -350H640V-209H600Q494 -209 448 -157T402 16V301Q402 409 348 466T183 535V559Q293 570 347 627T402 793V1077Q402 1197 448 1249T600 1302H640V1443H585Q405 1443 322 1359T238 1099V855Q238
735 190 689T20 642V452Q142 452 190 406T238 239V-6Q238 -181 323 -265T585 -350Z" />
<glyph unicode="|" glyph-name="bar" horiz-adv-x="442" d="M140 -350H302V1443H140V-350Z" />
<glyph unicode="}" glyph-name="braceright" horiz-adv-x="660" d="M75 -350Q252 -350 337 -266T422 -6V239Q422 359 470 405T640 452V642Q518 642 470 688T422 855V1099Q422 1274 339 1358T75 1443H20V1302H60Q166 1302 212 1250T258 1077V793Q258 685 312 628T477
559V535Q367 524 313 467T258 301V16Q258 -104 212 -156T60 -209H20V-350H75Z" />
<glyph unicode="~" glyph-name="asciitilde" horiz-adv-x="1238" d="M852 393Q927 393 986 433T1078 550T1112 732H962Q958 641 930 597T851 553Q802 553 758 576T656 642Q589 692 526 720T386 748Q310 748 252 708T160 591T126 409H276Q281 500 309 544T387 588Q436
588 480 565T582 499Q650 449 712 421T852 393Z" />
</font>
</defs>
</svg>
